# xmcd
#
# Track frame offsets: 
#        150
#        19587
#        37680
#        59827
#        79115
#        99242
#        118792
#        140692
#        161985
#
# Disc length: 2513 seconds
#
# Revision: 1
# Processed by: cddbd v1.5.2PL0 Copyright (c) Steve Scherf et al.
# Submitted via: ExactAudioCopy v1.1
#
DISCID=7309cf09
DTITLE=中島愛 - 中島愛3Thank You B面コレクション＋1
DYEAR=2014
DGENRE=Pop
TTITLE0=パイン
TTITLE1=天使の絵の具
TTITLE2=陽のあたるへや
TTITLE3=ナイショのはなし
TTITLE4=星空
TTITLE5=パンプキンケーキ
TTITLE6=忘れないよ
TTITLE7=素直
TTITLE8=マーブル-Rasmus Faber Remix-
EXTD=
EXTT0=
EXTT1=
EXTT2=
EXTT3=
EXTT4=
EXTT5=
EXTT6=
EXTT7=
EXTT8=
PLAYORDER=
